<svg width="193" height="59" viewBox="0 0 193 59" fill="none" xmlns="http://www.w3.org/2000/svg">
<path d="M42.9492 51.0696C42.9492 52.845 40.1781 53.9967 34.6359 54.5245C34.444 54.9084 34.444 55.4722 34.6359 56.2159C38.7146 56.072 42.8892 56 47.1598 56C52.2701 56 57.1885 56.072 61.9149 56.2159C62.1069 55.7841 62.1069 55.2203 61.9149 54.5245C53.9496 54.0446 49.9429 52.893 49.8949 51.0696C49.631 45.1196 49.499 37.9939 49.499 29.6927C49.499 21.3434 49.631 14.1938 49.8949 8.24374C49.9429 6.42035 53.9496 5.26873 61.9149 4.78888C62.1549 4.18908 62.1549 3.62527 61.9149 3.09744C55.605 3.28938 50.6866 3.38535 47.1598 3.38535C44.2088 3.38535 40.0341 3.28938 34.6359 3.09744C34.492 3.67325 34.492 4.23707 34.6359 4.78888C40.1301 5.31671 42.9012 6.46833 42.9492 8.24374C43.0931 12.6583 43.2131 19.3161 43.3091 28.2172C38.8945 28.3611 34.7199 28.4331 30.7852 28.4331C24.2114 28.4331 19.4489 28.3851 16.4979 28.2891C16.4979 20.2278 16.6419 13.546 16.9298 8.24374C16.9777 6.42035 20.9844 5.26873 28.9498 4.78888C29.0938 4.33303 29.0938 3.76922 28.9498 3.09744C22.6639 3.28938 17.7455 3.38535 14.1947 3.38535C11.2676 3.38535 7.093 3.28938 1.67079 3.09744C1.47886 3.5293 1.47886 4.09311 1.67079 4.78888C7.18897 5.31671 9.97206 6.46833 10.02 8.24374C10.26 13.8819 10.3799 20.5877 10.3799 28.3611C10.3799 35.9666 10.236 43.5361 9.94806 51.0696C9.90008 52.845 7.117 53.9967 1.59882 54.5245C1.40688 54.9084 1.40688 55.4722 1.59882 56.2159C5.67747 56.072 9.8521 56 14.1227 56C19.233 56 24.1514 56.072 28.8778 56.2159C29.0698 55.8321 29.0698 55.2682 28.8778 54.5245C20.9125 54.0446 16.9058 52.893 16.8578 51.0696C16.6179 43.848 16.4979 37.0942 16.4979 30.8083C22.4 30.6883 27.1624 30.6284 30.7852 30.6284C34.7199 30.6284 38.8945 30.7123 43.3091 30.8803C43.2611 36.2305 43.1411 42.9603 42.9492 51.0696ZM41.4737 51.0696C41.6656 41.5208 41.7856 35.4988 41.8336 33.0036C37.1311 32.9076 33.4483 32.8596 30.7852 32.8596C28.7219 32.8596 26.7905 32.8716 24.9911 32.8956C23.2157 32.9196 22.232 32.9316 22.0401 32.9316C22.0401 38.4738 22.16 44.4958 22.4 50.9977C22.4 51.1416 22.4479 51.2856 22.5439 51.4295C22.6399 51.5735 22.8078 51.6934 23.0477 51.7894C23.2877 51.8854 23.5276 51.9933 23.7675 52.1133C24.0314 52.2093 24.3553 52.3052 24.7392 52.4012C25.1471 52.4972 25.5069 52.5811 25.8188 52.6531C26.1307 52.7251 26.5266 52.7971 27.0064 52.869C27.5103 52.941 27.9061 53.001 28.194 53.049C28.5059 53.097 28.9138 53.1449 29.4176 53.1929C29.9455 53.2409 30.3054 53.2889 30.4973 53.3369C30.8812 54.6804 30.8092 56.1559 30.2814 57.7634C21.4283 57.5715 16.0421 57.4755 14.1227 57.4755C12.8511 57.4755 8.34059 57.5715 0.591148 57.7634C-0.00865415 56.108 -0.00865415 54.5605 0.591148 53.121C5.79743 52.5931 8.42457 51.8854 8.47255 50.9977C8.76046 43.4641 8.90441 35.9186 8.90441 28.3611C8.90441 20.6357 8.78445 13.9539 8.54453 8.31572C8.49654 7.42801 5.82142 6.72025 0.519172 6.19242C0.111306 4.65693 0.15929 3.10944 0.663124 1.54995C2.77443 1.54995 5.62949 1.60993 9.2283 1.72989C12.8511 1.84985 15.3703 1.90983 16.7858 1.90983C17.8175 1.90983 19.8088 1.88584 22.7598 1.83786C25.7109 1.78987 28.266 1.76588 30.4253 1.76588C30.8572 3.13343 30.8812 4.60894 30.4973 6.19242C25.195 6.72025 22.5199 7.42801 22.4719 8.31572C22.184 14.9375 22.0401 21.1275 22.0401 26.8856C24.3433 27.0296 27.2584 27.0535 30.7852 26.9576L41.8336 26.8136C41.7376 18.9922 41.6176 12.8262 41.4737 8.31572C41.4257 7.42801 38.7506 6.72025 33.4483 6.19242C33.0165 4.51297 33.0644 2.96548 33.5923 1.54995C37.0711 1.78987 41.7856 1.90983 47.7356 1.90983C48.8632 1.90983 51.1545 1.88584 54.6093 1.83786C58.0882 1.78987 61.0032 1.76588 63.3545 1.76588C63.8103 3.13343 63.8463 4.60894 63.4624 6.19242C58.1362 6.72025 55.4491 7.42801 55.4011 8.31572C55.1612 14.2658 55.0412 21.3914 55.0412 29.6927C55.0412 37.946 55.1612 45.0476 55.4011 50.9977C55.4491 51.8854 58.1362 52.5931 63.4624 53.121C63.8463 54.6564 63.7863 56.2039 63.2825 57.7634C55.533 57.5715 51.0225 57.4755 49.7509 57.4755C47.8316 57.4755 42.4454 57.5715 33.5923 57.7634C33.0165 56.108 33.0165 54.5605 33.5923 53.121C38.8465 52.5931 41.4737 51.9093 41.4737 51.0696Z" fill="white"/>
<path d="M89.4099 6.19242C88.1863 6.2404 87.4665 6.52831 87.2506 7.05614C87.0347 7.55997 87.1906 8.47167 87.7184 9.79123L98.8028 37.0702L103.193 25.2661L97.0034 9.71926C96.4755 8.44768 95.8278 7.57197 95.06 7.09212C94.2923 6.58829 93.0807 6.28839 91.4252 6.19242C90.8254 4.65693 90.8254 3.2294 91.4252 1.90983H116.833C117.433 3.2294 117.433 4.65693 116.833 6.19242C114.242 6.28839 112.55 6.64827 111.758 7.27206C110.967 7.87187 110.775 8.71159 111.183 9.79123L121.475 36.8543L131.588 9.79123C132.068 8.47167 131.9 7.59596 131.084 7.1641C130.292 6.70825 128.685 6.38436 126.262 6.19242C125.686 4.65693 125.686 3.2294 126.262 1.90983H147.639C148.238 3.2294 148.238 4.65693 147.639 6.19242C144.016 6.43234 141.689 6.79222 140.657 7.27206C139.577 7.82388 138.81 8.66361 138.354 9.79123L119.928 58.5192H116.257L106.612 33.6514L97.2193 58.5192H93.6205L73.5031 9.79123C73.0233 8.61562 72.1715 7.78789 70.948 7.30805C69.7483 6.80422 67.9489 6.43234 65.5497 6.19242C64.9499 4.65693 64.9499 3.2294 65.5497 1.90983H89.4099C90.0097 3.2294 90.0097 4.65693 89.4099 6.19242ZM88.1863 3.09744H66.8093C66.4974 3.57728 66.4974 4.1411 66.8093 4.78888C71.1279 5.22074 73.803 6.69625 74.8347 9.21542L94.5922 57.0437H96.2116L106.432 29.6207L117.301 57.0437H118.92L137.202 8.74758C137.73 7.38003 138.69 6.43234 140.081 5.90452C141.497 5.3527 143.5 4.98082 146.091 4.78888C146.403 4.1411 146.403 3.57728 146.091 3.09744H127.809C127.521 3.57728 127.521 4.1411 127.809 4.78888C130.664 5.12477 132.416 5.56863 133.063 6.12044C133.855 6.74424 134.023 7.61995 133.567 8.74758L119.568 46.4272L105.353 9.21542C104.801 7.91985 105.365 6.91218 107.044 6.19242C108.723 5.44867 111.471 4.98082 115.285 4.78888C115.597 4.1411 115.597 3.57728 115.285 3.09744H92.6848C92.3729 3.57728 92.3729 4.1411 92.6848 4.78888C94.1963 4.93284 95.3839 5.3287 96.2476 5.97649C97.1113 6.60029 97.8311 7.67993 98.4069 9.21542L104.741 25.2661L96.8594 46.4272L81.7444 9.21542C80.9287 7.58396 81.0126 6.50432 81.9963 5.97649C82.98 5.42467 85.0433 5.0288 88.1863 4.78888C88.4742 4.1411 88.4742 3.57728 88.1863 3.09744Z" fill="white"/>
<path d="M170.815 0.434319C174.246 0.434319 177.401 0.91416 180.28 1.87384C183.159 2.83353 185.75 3.45732 188.053 3.74523C186.782 8.20776 186.734 13.0182 187.909 18.1765C186.686 19.2081 185.282 19.8079 183.699 19.9759C183.507 19.52 183.159 18.5723 182.655 17.1328C182.175 15.6693 181.707 14.4697 181.252 13.534C180.82 12.5983 180.208 11.5307 179.416 10.3311C178.648 9.13145 177.617 8.18376 176.321 7.48799C175.05 6.76823 173.586 6.27639 171.931 6.01248C169.507 6.22841 167.636 6.97216 166.317 8.24374C164.997 9.51533 164.337 11.1588 164.337 13.1741C164.337 15.2374 164.865 16.9409 165.921 18.2844C166.976 19.604 168.344 20.5997 170.023 21.2715C171.727 21.9192 173.598 22.495 175.637 22.9989C177.677 23.4787 179.704 24.0785 181.719 24.7983C183.735 25.4941 185.582 26.4178 187.262 27.5694C188.965 28.697 190.345 30.3884 191.4 32.6437C192.456 34.899 192.984 37.6461 192.984 40.885C192.984 44.8197 191.844 48.2026 189.565 51.0336C187.286 53.8647 184.598 55.892 181.504 57.1156C178.409 58.3392 175.242 58.951 172.003 58.951C164.877 58.951 157.823 57.3795 150.842 54.2366C150.986 51.1416 151.058 49.2462 151.058 48.5505C151.058 44.6637 150.686 40.4891 149.942 36.0266C152.101 34.9949 154.512 34.9469 157.176 35.8826C158.063 41.3288 159.779 45.5035 162.322 48.4065C164.889 51.3095 167.696 52.929 170.743 53.2649C173.598 53.073 175.793 52.1493 177.329 50.4938C178.888 48.8144 179.668 46.6911 179.668 44.1239C179.668 41.9646 179.164 40.1412 178.157 38.6537C177.149 37.1422 175.817 35.9786 174.162 35.1629C172.506 34.3231 170.707 33.5674 168.764 32.8956C166.844 32.2238 164.901 31.5161 162.934 30.7723C160.966 30.0046 159.155 29.0929 157.499 28.0372C155.868 26.9816 154.548 25.5061 153.541 23.6107C152.533 21.7153 152.029 19.4121 152.029 16.701C152.029 14.2538 152.413 12.0585 153.181 10.1151C153.973 8.17177 154.992 6.61228 156.24 5.43667C157.511 4.26106 158.987 3.27738 160.666 2.48564C162.37 1.6939 164.049 1.15408 165.705 0.866176C167.384 0.578271 169.088 0.434319 170.815 0.434319ZM170.815 1.90983C168.8 1.90983 166.844 2.14975 164.949 2.62959C163.054 3.08544 161.206 3.8412 159.407 4.89685C157.631 5.9525 156.204 7.49999 155.124 9.53932C154.045 11.5786 153.505 13.9659 153.505 16.701C153.505 19.1242 154.009 21.2115 155.016 22.9629C156.024 24.6903 157.343 26.0339 158.975 26.9936C160.63 27.9532 162.442 28.805 164.409 29.5487C166.376 30.2685 168.32 31.0002 170.239 31.744C172.183 32.4878 173.982 33.3275 175.637 34.2632C177.293 35.1989 178.624 36.5064 179.632 38.1859C180.64 39.8413 181.144 41.8207 181.144 44.1239C181.144 47.3149 180.124 49.894 178.085 51.8614C176.045 53.8287 173.154 54.8124 169.411 54.8124C165.813 54.8124 162.466 53.3129 159.371 50.3139C156.276 47.3149 154.236 42.8283 153.253 36.8543C152.773 36.5424 152.209 36.5424 151.561 36.8543C152.209 40.6211 152.533 44.5198 152.533 48.5505C152.533 49.6781 152.485 51.2736 152.389 53.3369C158.339 56.096 164.013 57.4755 169.411 57.4755C173.874 57.4755 178.001 56.1559 181.791 53.5168C185.582 50.8537 187.478 47.1349 187.478 42.3605C187.478 39.6494 186.95 37.3581 185.894 35.4868C184.838 33.5914 183.459 32.1159 181.755 31.0602C180.052 30.0046 178.181 29.0929 176.141 28.3251C174.102 27.5574 172.075 26.8376 170.059 26.1658C168.044 25.4701 166.185 24.7023 164.481 23.8626C162.802 23.0229 161.434 21.8353 160.378 20.2998C159.323 18.7403 158.795 16.8569 158.795 14.6496C158.795 11.5547 159.839 9.08347 161.926 7.23608C164.013 5.38869 166.976 4.46499 170.815 4.46499C177.485 4.46499 182.079 9.08347 184.598 18.3204C185.342 18.4404 185.858 18.2724 186.146 17.8166C185.354 11.9625 183.615 7.84787 180.928 5.47266C178.265 3.09744 174.894 1.90983 170.815 1.90983Z" fill="white"/>
</svg>
